<svg width="20" height="20" viewBox="0 0 20 20" fill="none" xmlns="http://www.w3.org/2000/svg">
<path d="M12.5833 15.9584C11.8833 15.9584 11.1167 15.7334 10.3417 15.2834L6.48333 13.0584C5.125 12.2667 4.375 11.1834 4.375 10C4.375 8.81668 5.125 7.73335 6.48333 6.95002L10.3417 4.72502C11.7 3.94168 13.0083 3.83335 14.0417 4.42502C15.0667 5.01668 15.6333 6.20835 15.6333 7.77502V12.225C15.6333 13.7917 15.0667 14.9834 14.0417 15.575C13.6 15.8334 13.1083 15.9584 12.5833 15.9584ZM12.5833 5.30002C12.1 5.30002 11.55 5.46668 10.9667 5.80835L7.10833 8.03335C6.15 8.58335 5.625 9.28335 5.625 10C5.625 10.7167 6.15 11.4167 7.10833 11.9667L10.9667 14.1917C11.925 14.7417 12.7917 14.85 13.4167 14.4917C14.0417 14.1334 14.3833 13.325 14.3833 12.225V7.77502C14.3833 6.67502 14.0417 5.86668 13.4167 5.50835C13.1667 5.36668 12.8833 5.30002 12.5833 5.30002Z" fill="#B0B9BE"/>
</svg>
